<?xml version="1.0" standalone="no"?>
<!DOCTYPE svg PUBLIC "-//W3C//DTD SVG 1.0//EN" "http://www.w3.org/TR/2001/REC-SVG-20010904/DTD/svg10.dtd">
<svg xmlns="http://www.w3.org/2000/svg" xmlns:xlink="http://www.w3.org/1999/xlink" id="body_2" width="305" height="305">

<g>
	<g clip-path="url(#1)" >
        <path transform="matrix(1 0 0 -1 0 229)"  d="M224.6571 114.9352C 224.6571 175.5329 175.5329 224.6571 114.9352 224.6571C 54.33742 224.6571 5.213254 175.5329 5.213254 114.9352C 5.213254 54.33742 54.33742 5.213254 114.9352 5.213254C 175.5329 5.213254 224.6571 54.33742 224.6571 114.9352z" stroke="none" fill="#14CB00" fill-rule="evenodd" />
        <path transform="matrix(1 0 0 -1 0 229)"  d="M150.2502 52.34428C 152.4396 49.51731 155.8132 47.86176 159.3888 47.85974L159.3888 47.85974L176.2103 47.85974C 182.5979 47.85939 187.7757 53.03816 187.7743 59.42567L187.7743 59.42567L187.7743 112.6634C 187.7764 119.0514 182.598 124.2308 176.21 124.2297L176.21 124.2297L159.3898 124.2297C 156.6229 124.2286 153.948 123.2356 151.8507 121.4309L151.8507 121.4309L145.6177 121.4309C 144.8976 121.478 142.8908 123.528 142.3338 124.1844C 137.4899 129.8935 132.4346 140.9863 129.4698 148.7154C 127.491 153.8741 123.595 157.3969 119.2538 160.5735C 117.6852 161.7434 116.3503 163.1976 115.3188 164.8604C 111.8394 170.6478 110.4089 182.1579 110.0561 189.5358C 109.8229 194.4131 105.4028 197.1016 100.7092 197.0888C 94.51931 197.0719 87.49352 193.5575 83.81235 188.2726C 80.81509 183.8198 79.17788 178.5913 79.10027 173.2244C 78.84129 167.8429 79.73488 162.4682 81.72124 157.4601L81.72124 157.4601L87.51553 145.485C 88.12802 144.1541 88.66163 142.7883 89.11357 141.3946C 80.91024 141.5642 72.70351 141.4537 64.50773 141.0633C 62.00409 140.9452 57.63501 140.3691 55.32177 139.5253C 53.25703 138.5867 51.38936 137.2645 49.81807 135.6289L49.81807 135.6289L49.92449 135.7398C 46.24479 132.0152 41.83429 125.2696 42.10819 119.5636C 42.26426 116.3123 44.54855 113.7325 46.34613 111.2474L46.34613 111.2474L43.9175 107.1337C 42.91175 105.4246 42.29588 103.5146 42.11388 101.54C 41.83106 97.2009 45.39135 93.94588 47.87398 90.93729L47.87398 90.93729L46.21489 86.66727C 45.60292 85.13615 45.11497 83.23152 45.09748 81.58375C 45.2141 78.99682 46.14537 76.51293 47.75824 74.48698L47.75824 74.48698L47.64994 74.62281C 48.67517 73.29351 49.80954 72.05209 51.04124 70.91147C 51.81298 70.22643 52.52917 69.48124 53.18306 68.68293L53.18306 68.68293L53.122 65.13348C 53.07742 63.56969 53.2997 61.65017 53.90424 60.21132C 55.81806 55.65627 62.99397 48.85006 68.85825 46.88301C 73.633 45.28143 82.28019 45.12341 87.33429 45.05378C 98.10217 45.12992 108.8621 45.659 119.5855 46.6396L119.5855 46.6396L150.2502 52.34428z" stroke="none" fill="#000000" fill-rule="evenodd" />
        <path transform="matrix(1 0 0 -1 0 229)"  d="M52.741 111.9114C 52.43831 114.2048 48.21049 117.6034 48.07816 119.9137C 47.83037 124.1204 53.51109 132.3423 57.41088 133.9205C 61.95664 135.7597 80.10995 135.6196 89.46304 135.4143C 90.57665 135.3899 97.74525 136.7905 94.99249 142.5857C 93.21489 148.5631 88.84105 155.8096 87.26178 159.6576C 83.80267 168.0612 84.38552 179.2199 88.75694 184.9443C 94.09695 191.9456 103.8971 192.413 104.1012 189.2776C 105.5584 166.5604 109.9087 160.2574 115.7316 155.7649C 119.2301 153.0703 122.288 150.705 123.8986 146.5969C 133.8254 121.3215 141.1787 115.4705 145.3854 115.4705C 145.3854 115.4705 145.8321 115.4705 146.3686 115.4705C 147.175 115.4705 148.4322 113.7688 148.7676 110.8896C 149.9456 100.7771 152.2019 76.13875 148.5795 59.69104C 148.4548 59.12489 147.5697 57.90831 143.9326 57.23167C 140.2954 56.55504 118.7683 52.55028 118.7683 52.55028C 118.7683 52.55028 82.24557 49.09116 70.74615 52.55028C 67.12794 53.63433 60.88549 59.06727 59.40723 62.55454C 58.56533 64.55512 59.73667 69.2968 58.74131 71.22698C 57.26728 74.09197 51.06423 77.6778 51.06987 81.56632C 51.0755 84.33699 54.30935 89.13781 54.07283 91.90425C 53.83631 94.67071 48.06126 98.47053 48.06689 101.2426C 48.08379 104.1513 53.12675 109.0239 52.741 111.9114z" stroke="none" fill="#FFFFFF" fill-rule="evenodd" />
        <path transform="matrix(1 0 0 -1 0 229)"  d="M153.8112 58.92228C 154.0656 56.06195 156.471 53.82017 159.3922 53.82017L159.3922 53.82017L176.2105 53.82017C 179.3064 53.82017 181.8138 56.32898 181.8138 59.42486L181.8138 59.42486L181.8138 112.6646C 181.8138 115.7619 179.3064 118.2693 176.2105 118.2693L176.2105 118.2693L159.3922 118.2693C 156.302 118.2693 153.7889 115.7619 153.7889 112.6646C 153.7889 112.6646 153.7889 112.6643 153.7889 112.5346C 153.7889 112.405 158.1267 84.39911 153.8112 58.92228z" stroke="none" fill="#FFFFFF" fill-rule="evenodd" />
        <path transform="matrix(1 0 0 -1 0 229)"  d="M224.1285 114.9352C 224.1285 175.241 175.241 224.1285 114.9352 224.1285C 54.62932 224.1285 5.741788 175.241 5.741788 114.9352C 5.741788 54.62932 54.62932 5.741788 114.9352 5.741788C 175.241 5.741788 224.1285 54.62932 224.1285 114.9352zM229.8703 114.9352C 229.8703 178.4121 178.4121 229.8703 114.9352 229.8703C 51.45822 229.8703 0 178.4121 0 114.9352C 0 51.45822 51.45822 0 114.9352 0C 178.4121 0 229.8703 51.45822 229.8703 114.9352z" stroke="none" fill="#75F250" fill-rule="evenodd" />
	</g>
</g>
<defs>
        <clipPath  id="1">

            <path d="M0 229L0 -0.8703156L0 -0.8703156L229.8703 -0.8703156L229.8703 -0.8703156L229.8703 229L229.8703 229L0 229z" />        </clipPath>
</defs>

</svg>