<?xml version="1.0" standalone="no"?>
<!DOCTYPE svg PUBLIC "-//W3C//DTD SVG 1.0//EN" "http://www.w3.org/TR/2001/REC-SVG-20010904/DTD/svg10.dtd">
<svg xmlns="http://www.w3.org/2000/svg" xmlns:xlink="http://www.w3.org/1999/xlink" id="body_1" width="305" height="305">

<g>
	<g clip-path="url(#1)" >
        <path transform="matrix(1 0 0 -1 0 229)"  d="M224.6571 114.9352C 224.6571 175.5329 175.5329 224.6571 114.9352 224.6571C 54.33742 224.6571 5.213254 175.5329 5.213254 114.9352C 5.213254 54.33742 54.33742 5.213254 114.9352 5.213254C 175.5329 5.213254 224.6571 54.33742 224.6571 114.9352z" stroke="none" fill="#AD081C" fill-rule="evenodd" />
        <path transform="matrix(1 0 0 -1 0 229)"  d="M224.1285 114.9352C 224.1285 175.241 175.241 224.1285 114.9352 224.1285C 54.62932 224.1285 5.741788 175.241 5.741788 114.9352C 5.741788 54.62932 54.62932 5.741788 114.9352 5.741788C 175.241 5.741788 224.1285 54.62932 224.1285 114.9352zM229.8703 114.9352C 229.8703 178.4121 178.4121 229.8703 114.9352 229.8703C 51.45822 229.8703 0 178.4121 0 114.9352C 0 51.45822 51.45822 0 114.9352 0C 178.4121 0 229.8703 51.45822 229.8703 114.9352z" stroke="none" fill="#FF0000" fill-rule="evenodd" />
        <path transform="matrix(1 0 0 -1 0 229)"  d="M150.2502 177.526C 152.4396 180.353 155.8132 182.0085 159.3888 182.0106L159.3888 182.0106L176.2103 182.0106C 182.5979 182.0109 187.7757 176.8322 187.7743 170.4446L187.7743 170.4446L187.7743 117.2069C 187.7764 110.8189 182.598 105.6395 176.21 105.6406L176.21 105.6406L159.3898 105.6406C 156.6229 105.6417 153.948 106.6347 151.8507 108.4394L151.8507 108.4394L145.6177 108.4394C 144.8976 108.3923 142.8908 106.3424 142.3338 105.6859C 137.4899 99.97678 132.4346 88.88396 129.4698 81.15492C 127.491 75.99624 123.595 72.47343 119.2538 69.29679C 117.6852 68.12693 116.3503 66.67274 115.3188 65.0099C 111.8394 59.22246 110.4089 47.71238 110.0561 40.33453C 109.8229 35.4572 105.4028 32.76872 100.7092 32.78152C 94.51931 32.79841 87.49352 36.31276 83.81235 41.59772C 80.81509 46.05047 79.17788 51.27897 79.10027 56.64595C 78.84129 62.02739 79.73488 67.40206 81.72124 72.41019L81.72124 72.41019L87.51553 84.38531C 88.12802 85.71622 88.66163 87.08204 89.11357 88.47567C 80.91024 88.30609 72.70351 88.41659 64.50773 88.80696C 62.00409 88.92512 57.63501 89.50119 55.32177 90.34505C 53.25703 91.28362 51.38936 92.60584 49.81807 94.24142L49.81807 94.24142L49.92449 94.13052C 46.24479 97.85508 41.83429 104.6007 42.10819 110.3068C 42.26426 113.558 44.54855 116.1378 46.34613 118.6229L46.34613 118.6229L43.9175 122.7366C 42.91175 124.4457 42.29588 126.3557 42.11388 128.3303C 41.83106 132.6694 45.39135 135.9244 47.87398 138.933L47.87398 138.933L46.21489 143.203C 45.60292 144.7342 45.11497 146.6388 45.09748 148.2866C 45.2141 150.8735 46.14537 153.3574 47.75824 155.3833L47.75824 155.3833L47.64994 155.2475C 48.67517 156.5768 49.80954 157.8182 51.04124 158.9588C 51.81298 159.6439 52.52917 160.3891 53.18306 161.1874L53.18306 161.1874L53.122 164.7368C 53.07742 166.3006 53.2997 168.2201 53.90424 169.659C 55.81806 174.214 62.99397 181.0202 68.85825 182.9873C 73.633 184.5889 82.28019 184.7469 87.33429 184.8165C 98.10217 184.7404 108.8621 184.2113 119.5855 183.2307L119.5855 183.2307L150.2502 177.526z" stroke="none" fill="#000000" fill-rule="evenodd" />
        <path transform="matrix(1 0 0 -1 0 229)"  d="M52.741 117.9589C 52.43831 115.6655 48.21049 112.2669 48.07816 109.9566C 47.83037 105.7499 53.51109 97.52802 57.41088 95.94981C 61.95664 94.11064 80.10995 94.25069 89.46304 94.45596C 90.57665 94.48041 97.74525 93.07984 94.99249 87.28458C 93.21489 81.30723 88.84105 74.06071 87.26178 70.21267C 83.80267 61.80914 84.38552 50.65042 88.75694 44.92605C 94.09695 37.92475 103.8971 37.45734 104.1012 40.59265C 105.5584 63.30992 109.9087 69.61292 115.7316 74.10541C 119.2301 76.80006 122.288 79.16527 123.8986 83.27341C 133.8254 108.5488 141.1787 114.3998 145.3854 114.3998C 145.3854 114.3998 145.8321 114.3998 146.3686 114.3998C 147.175 114.3998 148.4322 116.1015 148.7676 118.9807C 149.9456 129.0932 152.2019 153.7316 148.5795 170.1793C 148.4548 170.7454 147.5697 171.962 143.9326 172.6386C 140.2954 173.3153 118.7683 177.32 118.7683 177.32C 118.7683 177.32 82.24557 180.7791 70.74615 177.32C 67.12794 176.236 60.88549 170.803 59.40723 167.3158C 58.56533 165.3152 59.73667 160.5735 58.74131 158.6433C 57.26728 155.7783 51.06423 152.1925 51.06987 148.304C 51.0755 145.5333 54.30935 140.7325 54.07283 137.9661C 53.83631 135.1996 48.06126 131.3998 48.06689 128.6277C 48.08379 125.7191 53.12675 120.8464 52.741 117.9589z" stroke="none" fill="#FFFFFF" fill-rule="evenodd" />
        <path transform="matrix(1 0 0 -1 0 229)"  d="M153.8112 170.948C 154.0656 173.8083 156.471 176.0501 159.3922 176.0501L159.3922 176.0501L176.2105 176.0501C 179.3064 176.0501 181.8138 173.5413 181.8138 170.4454L181.8138 170.4454L181.8138 117.2057C 181.8138 114.1084 179.3064 111.601 176.2105 111.601L176.2105 111.601L159.3922 111.601C 156.302 111.601 153.7889 114.1084 153.7889 117.2057C 153.7889 117.2057 153.7889 117.206 153.7889 117.3357C 153.7889 117.4653 158.1267 145.4712 153.8112 170.948z" stroke="none" fill="#FFFFFF" fill-rule="evenodd" />
	</g>
</g>
<defs>
        <clipPath  id="1">

            <path d="M0 229L0 -0.8703156L0 -0.8703156L229.8703 -0.8703156L229.8703 -0.8703156L229.8703 229L229.8703 229L0 229z" />        </clipPath>
</defs>

</svg>