<?xml version="1.0" encoding="UTF-8" standalone="no"?> <svg id="Layer_1" data-name="Layer 1" xmlns="http://www.w3.org/2000/svg" viewBox="0 0 128 128"><defs><style>.cls-1{fill:#1d75b8;}.cls-2{fill:#2d3e50;}</style></defs><title>b</title><path class="cls-1" d="M5.0226,61.68751H21.65547a3.0822,3.0822,0,0,1,3.0822,3.0822v52.4666a3.08244,3.08244,0,0,1-3.08244,3.08244H5.02285a3.08223,3.08223,0,0,1-3.08223-3.08223v-52.467A3.082,3.082,0,0,1,5.0226,61.68751Z"/><path class="cls-2" d="M115.413,44.48777H84.56043l.07514-.24853,1.28888-4.14411,1.25421-4.02854,3.75112-12.06244,1.8264-5.88383a9.09017,9.09017,0,0,0,.24274-.92475c.00579-.00579.00579-.00579,0-.01157a10.6185,10.6185,0,0,0,.2601-2.36392,10.81745,10.81745,0,0,0-.17339-1.93625A11.10941,11.10941,0,0,0,72.33614,9.60091L42.31586,56.76406A29.88645,29.88645,0,0,1,32.155,66.87871a.02125.02125,0,0,1-.01736.00579,4.07993,4.07993,0,0,0-2.08071,3.53723v45.81648a4.03238,4.03238,0,0,0,2.78707,3.841q.138.04455.2801.07937c.27742.06777,14.28821,2.65756,14.28821,2.65756l8.50834.9668a79.40545,79.40545,0,0,0,8.965.50774h37.24609A12.049,12.049,0,0,0,113.93,114.6869L126.05938,56.163C126.05938,47.921,119.25079,44.93283,115.413,44.48777Z"/></svg>