<?xml version="1.0" encoding="UTF-8" standalone="no"?> <svg id="Layer_1" data-name="Layer 1" xmlns="http://www.w3.org/2000/svg" viewBox="0 0 128 128"><defs><style>.cls-1{fill:#1d75b8;}.cls-2{fill:#2d3e50;}</style></defs><title>a</title><path class="cls-1" d="M5.13072,7.7845H21.7331A3.07654,3.07654,0,0,1,24.80965,10.861V63.23146a3.07679,3.07679,0,0,1-3.07679,3.07679H5.131a3.07658,3.07658,0,0,1-3.07658-3.07658V10.86083A3.07633,3.07633,0,0,1,5.13072,7.7845Z"/><path class="cls-2" d="M115.31875,83.47646h-30.796l.075.24807L85.88426,87.861l1.25191,4.02115,3.74424,12.04033,1.82305,5.873a9.0735,9.0735,0,0,1,.2423.92306c.00577.00577.00577.00577,0,.01155a10.599,10.599,0,0,1,.25962,2.35958,10.79762,10.79762,0,0,1-.17307,1.9327,11.089,11.089,0,0,1-20.71146,3.2769L42.35561,71.22268A29.83166,29.83166,0,0,0,32.21337,61.12657a.02121.02121,0,0,0-.01732-.00577A4.07245,4.07245,0,0,1,30.11915,57.59V11.85756a4.025,4.025,0,0,1,2.782-3.83393q.1377-.04447.27959-.07923c.27691-.06764,14.262-2.65269,14.262-2.65269l8.49274-.965a79.2599,79.2599,0,0,1,8.9486-.50681h37.17781A12.02688,12.02688,0,0,1,113.83845,13.406l12.10716,58.41664C125.94561,80.04955,119.14951,83.03222,115.31875,83.47646Z"/></svg>