<?xml version="1.0" encoding="utf-8"?>
<!-- Generator: Adobe Illustrator 24.0.0, SVG Export Plug-In . SVG Version: 6.00 Build 0)  -->
<svg version="1.1" id="Layer_1" xmlns="http://www.w3.org/2000/svg" xmlns:xlink="http://www.w3.org/1999/xlink" x="0px" y="0px"
	 viewBox="0 0 256 256" style="enable-background:new 0 0 256 256;" xml:space="preserve">
<style type="text/css">
	.st0{fill:#382B73;}
	.st1{fill:#291B4A;}
	.st2{fill:#ED9ABC;}
	.st3{fill:#E54890;}
	.st4{fill:#D3D3D3;}
	.st5{fill:#EBE7F2;}
	.st6{fill:#F9B087;}
	.st7{fill:#FF8639;}
	.st8{fill:#65C1D6;}
	.st9{fill:#149CB2;}
</style>
<g>
	<g>
		<g>
			<g>
				<g>
					
						<ellipse transform="matrix(0.7071 -0.7071 0.7071 0.7071 -53.0193 128)" class="st0" cx="128" cy="128" rx="119.4" ry="119.4"/>
				</g>
			</g>
		</g>
	</g>
	<g>
		<g>
			<g>
				<g>
					<path class="st1" d="M43.755,108.896v17.206c0,4.597,3.108,8.613,7.563,9.767l19.933,5.136l-10.464,17.729
						c-2.333,3.963-1.691,9.001,1.561,12.251l12.166,12.167c1.944,1.944,4.526,2.955,7.136,2.955c0.833,0,1.667-0.111,2.485-0.319
						v42.458c0,1.381,1.119,2.5,2.5,2.5s2.5-1.119,2.5-2.5v-51.542c0-7.637,6.213-13.85,13.849-13.85h50.032
						c7.637,0,13.85,6.213,13.85,13.85v51.542c0,1.381,1.119,2.5,2.5,2.5s2.5-1.119,2.5-2.5v-42.458
						c3.383,0.861,7.058-0.071,9.621-2.636l12.167-12.167c3.251-3.251,3.893-8.29,1.559-12.254l-10.463-17.727l19.937-5.137
						c4.451-1.153,7.56-5.169,7.56-9.766v-17.206c0-4.598-3.108-8.614-7.563-9.768l-19.934-5.137l10.464-17.729
						c2.333-3.961,1.691-9-1.56-12.251l-12.167-12.167c-3.251-3.25-8.289-3.893-12.253-1.558L151.507,60.75l-5.138-19.937
						c-1.152-4.45-5.169-7.559-9.766-7.559h-17.207c-4.598,0-8.613,3.108-9.766,7.562l-5.137,19.934L86.764,50.285
						c-3.962-2.333-9-1.69-12.25,1.56L62.347,64.011c-3.251,3.251-3.894,8.289-1.559,12.253l10.463,17.727l-19.937,5.137
						C46.864,100.282,43.755,104.298,43.755,108.896z M75.717,98.004c0.761-0.196,1.385-0.738,1.686-1.464
						c0.301-0.726,0.243-1.551-0.157-2.228L65.095,73.726c-1.176-1.998-0.853-4.539,0.787-6.179L78.049,55.38
						c1.64-1.639,4.182-1.963,6.176-0.788l20.589,12.153c0.676,0.399,1.501,0.458,2.228,0.157c0.726-0.3,1.268-0.925,1.464-1.686
						l5.966-23.149c0.581-2.245,2.606-3.812,4.925-3.812h17.207c2.318,0,4.344,1.568,4.925,3.81l5.966,23.152
						c0.196,0.761,0.738,1.385,1.464,1.686c0.728,0.301,1.553,0.243,2.228-0.157l20.587-12.151c1.997-1.176,4.539-0.852,6.179,0.787
						l12.167,12.167c1.64,1.64,1.963,4.181,0.787,6.176l-12.152,20.589c-0.399,0.677-0.457,1.502-0.156,2.228
						c0.301,0.726,0.925,1.269,1.686,1.464l23.149,5.965c2.245,0.582,3.813,2.608,3.813,4.927v17.206
						c0,2.319-1.568,4.344-3.811,4.925l-23.152,5.965c-0.761,0.196-1.385,0.738-1.686,1.464c-0.301,0.726-0.243,1.551,0.156,2.227
						l12.151,20.587c1.177,1.999,0.854,4.54-0.786,6.18l-12.167,12.167c-1.615,1.615-4.101,1.946-6.086,0.831v-3.744
						c0-10.394-8.456-18.85-18.85-18.85h-4.266c14.807-7.576,24.972-22.979,24.972-40.722c0-25.211-20.511-45.721-45.722-45.721
						s-45.722,20.51-45.722,45.721c0,17.743,10.166,33.146,24.972,40.722h-4.267c-10.394,0-18.849,8.456-18.849,18.85v3.744
						c-1.982,1.115-4.47,0.784-6.086-0.831L65.882,167.45c-1.64-1.64-1.963-4.181-0.789-6.177l12.152-20.589
						c0.399-0.676,0.458-1.501,0.157-2.227c-0.301-0.726-0.925-1.269-1.686-1.464l-23.149-5.964
						c-2.245-0.582-3.813-2.607-3.813-4.926v-17.206c0-2.319,1.568-4.345,3.81-4.926L75.717,98.004z M128,157.854
						c-22.454,0-40.722-18.268-40.722-40.722c0-22.454,18.268-40.721,40.722-40.721s40.722,18.268,40.722,40.721
						C168.722,139.586,150.454,157.854,128,157.854z"/>
				</g>
			</g>
		</g>
		<g>
			<g>
				<g>
					<path class="st1" d="M108.31,228.246v-23.989c0-1.381-1.119-2.5-2.5-2.5s-2.5,1.119-2.5,2.5v23.989c0,1.381,1.119,2.5,2.5,2.5
						S108.31,229.626,108.31,228.246z"/>
				</g>
			</g>
		</g>
		<g>
			<g>
				<g>
					<path class="st1" d="M152.69,228.246v-23.989c0-1.381-1.119-2.5-2.5-2.5s-2.5,1.119-2.5,2.5v23.989c0,1.381,1.119,2.5,2.5,2.5
						S152.69,229.626,152.69,228.246z"/>
				</g>
			</g>
		</g>
		<g>
			<g>
				<g>
					<path class="st1" d="M157.658,117.132c0-16.354-13.305-29.658-29.658-29.658s-29.658,13.305-29.658,29.658
						c0,16.354,13.305,29.659,29.658,29.659S157.658,133.486,157.658,117.132z M103.342,117.132
						c0-13.597,11.062-24.658,24.658-24.658s24.658,11.062,24.658,24.658S141.597,141.791,128,141.791
						S103.342,130.729,103.342,117.132z"/>
				</g>
			</g>
		</g>
		<g>
			<g>
				<g>
					<path class="st1" d="M128,128.672c-2.492,0-4.52-2.027-4.52-4.52c0-1.381-1.119-2.5-2.5-2.5s-2.5,1.119-2.5,2.5
						c0,4.383,2.981,8.073,7.02,9.175v1.152c0,1.381,1.119,2.5,2.5,2.5s2.5-1.119,2.5-2.5v-1.152c4.038-1.102,7.02-4.793,7.02-9.175
						c0-5.25-4.271-9.52-9.52-9.52c-2.492,0-4.52-2.027-4.52-4.52s2.027-4.52,4.52-4.52s4.52,2.027,4.52,4.52
						c0,1.381,1.119,2.5,2.5,2.5s2.5-1.119,2.5-2.5c0-4.383-2.981-8.073-7.02-9.175v-1.152c0-1.381-1.119-2.5-2.5-2.5
						s-2.5,1.119-2.5,2.5v1.152c-4.038,1.102-7.02,4.793-7.02,9.175c0,5.249,4.271,9.52,9.52,9.52c2.492,0,4.52,2.028,4.52,4.52
						S130.492,128.672,128,128.672z"/>
				</g>
			</g>
		</g>
	</g>
	<g>
		<g>
			<g>
				<g>
					<g>
						<path class="st6" d="M43.755,104.896v17.206c0,4.597,3.108,8.613,7.563,9.767l19.933,5.136l-10.464,17.729
							c-2.333,3.963-1.691,9.001,1.561,12.251l12.166,12.167c1.944,1.944,4.526,2.955,7.136,2.955c1.755,0,3.522-0.457,5.115-1.395
							c1.189-0.7,1.586-2.233,0.886-3.423c-0.7-1.189-2.231-1.586-3.423-0.886c-1.997,1.177-4.538,0.854-6.179-0.787L65.882,163.45
							c-1.64-1.64-1.963-4.181-0.789-6.177l12.152-20.589c0.399-0.676,0.458-1.501,0.157-2.227
							c-0.301-0.726-0.925-1.269-1.686-1.464l-23.149-5.964c-2.245-0.582-3.813-2.607-3.813-4.926v-17.206
							c0-2.319,1.568-4.345,3.81-4.926l23.152-5.966c0.761-0.196,1.385-0.738,1.686-1.464c0.301-0.726,0.243-1.551-0.157-2.228
							L65.095,69.726c-1.176-1.998-0.853-4.539,0.787-6.179L78.049,51.38c1.64-1.639,4.182-1.963,6.176-0.788l20.589,12.153
							c0.676,0.399,1.501,0.458,2.228,0.157c0.726-0.3,1.268-0.925,1.464-1.686l5.966-23.149c0.581-2.245,2.606-3.812,4.925-3.812
							h17.207c2.318,0,4.344,1.568,4.925,3.81l5.966,23.152c0.196,0.761,0.738,1.385,1.464,1.686
							c0.728,0.301,1.553,0.243,2.228-0.157l20.587-12.151c1.997-1.176,4.539-0.852,6.179,0.787l12.167,12.167
							c1.64,1.64,1.963,4.181,0.787,6.176l-12.152,20.589c-0.399,0.677-0.457,1.502-0.156,2.228
							c0.301,0.726,0.925,1.269,1.686,1.464l23.149,5.965c2.245,0.582,3.813,2.608,3.813,4.927v17.206
							c0,2.319-1.568,4.344-3.811,4.925l-23.152,5.965c-0.761,0.196-1.385,0.738-1.686,1.464c-0.301,0.726-0.243,1.551,0.156,2.227
							l12.151,20.587c1.177,1.999,0.854,4.54-0.786,6.18l-12.167,12.167c-1.64,1.64-4.18,1.963-6.179,0.787
							c-1.188-0.699-2.722-0.305-3.423,0.886c-0.7,1.19-0.304,2.722,0.886,3.423c3.961,2.333,9.001,1.692,12.251-1.56l12.167-12.167
							c3.251-3.251,3.893-8.29,1.559-12.254l-10.463-17.727l19.937-5.137c4.451-1.153,7.56-5.169,7.56-9.766v-17.206
							c0-4.598-3.108-8.614-7.563-9.768l-19.934-5.137l10.464-17.729c2.333-3.961,1.691-9-1.56-12.251l-12.167-12.167
							c-3.251-3.25-8.289-3.893-12.253-1.558L151.507,56.75l-5.138-19.937c-1.152-4.45-5.169-7.559-9.766-7.559h-17.207
							c-4.598,0-8.613,3.108-9.766,7.562l-5.137,19.934L86.764,46.285c-3.962-2.333-9-1.69-12.25,1.56L62.347,60.011
							c-3.251,3.251-3.894,8.289-1.559,12.253l10.463,17.727l-19.937,5.137C46.864,96.282,43.755,100.298,43.755,104.896z"/>
					</g>
				</g>
			</g>
		</g>
		<g>
			<g>
				<g>
					<g>
						<g>
							<path class="st7" d="M43.755,104.896v17.206c0,4.597,3.108,8.613,7.563,9.767l19.933,5.136l-10.464,17.729
								c-2.333,3.963-1.691,9.001,1.561,12.251l12.166,12.167c1.944,1.944,4.526,2.955,7.136,2.955c1.755,0,3.522-0.457,5.115-1.395
								c1.189-0.7,1.586-2.233,0.886-3.423c-0.466-0.791-1.3-1.232-2.156-1.232c-0.431,0-0.868,0.112-1.266,0.346
								c-0.803,0.473-1.694,0.704-2.579,0.704c-1.316,0-2.619-0.51-3.6-1.49L65.882,163.45c-1.64-1.64-1.963-4.181-0.789-6.177
								l12.152-20.589c0.399-0.676,0.458-1.501,0.157-2.227c-0.301-0.726-0.925-1.269-1.686-1.464l-23.149-5.964
								c-2.245-0.582-3.813-2.607-3.813-4.926v-17.206c0-2.319,1.568-4.345,3.81-4.926l23.152-5.966
								c0.761-0.196,1.385-0.738,1.686-1.464c0.301-0.726,0.243-1.551-0.157-2.228L65.095,69.726
								c-1.176-1.998-0.853-4.539,0.787-6.179L78.049,51.38c0.981-0.981,2.284-1.49,3.601-1.49c0.884,0,1.774,0.23,2.576,0.702
								l20.589,12.153c0.39,0.23,0.829,0.347,1.271,0.347c0.324,0,0.649-0.063,0.957-0.19c0.726-0.3,1.268-0.925,1.464-1.686
								l5.966-23.149c0.581-2.245,2.606-3.812,4.925-3.812h17.207c2.318,0,4.344,1.568,4.925,3.81l5.966,23.152
								c0.196,0.761,0.738,1.385,1.464,1.686c0.308,0.128,0.634,0.191,0.958,0.191c0.441,0,0.88-0.117,1.269-0.347l20.587-12.151
								c0.803-0.473,1.693-0.703,2.578-0.703c1.316,0,2.62,0.51,3.6,1.49l12.167,12.167c1.64,1.64,1.963,4.181,0.787,6.176
								l-12.152,20.589c-0.399,0.677-0.457,1.502-0.156,2.228c0.301,0.726,0.925,1.269,1.686,1.464l23.149,5.965
								c2.245,0.582,3.813,2.608,3.813,4.927v17.206c0,2.319-1.568,4.344-3.811,4.925l-23.152,5.965
								c-0.761,0.196-1.385,0.738-1.686,1.464c-0.301,0.726-0.243,1.551,0.156,2.227l12.151,20.587
								c1.177,1.999,0.854,4.54-0.786,6.18l-12.167,12.167c-0.98,0.98-2.283,1.49-3.599,1.49c-0.885,0-1.776-0.231-2.58-0.704
								c-0.398-0.234-0.835-0.346-1.266-0.346c-0.856,0-1.691,0.44-2.157,1.231c-0.7,1.19-0.304,2.722,0.886,3.423
								c1.593,0.938,3.36,1.395,5.115,1.395c2.609,0,5.193-1.011,7.136-2.955l12.167-12.167c3.251-3.251,3.893-8.29,1.559-12.254
								l-10.463-17.727l19.937-5.137c4.451-1.153,7.56-5.169,7.56-9.766v-17.206c0-4.598-3.108-8.614-7.563-9.768l-19.934-5.137
								l10.464-17.729c2.333-3.961,1.691-9-1.56-12.251l-12.167-12.167c-1.944-1.943-4.526-2.954-7.136-2.954
								c-1.755,0-3.523,0.457-5.117,1.396L151.507,56.75l-5.138-19.937c-1.152-4.45-5.169-7.559-9.766-7.559h-17.207
								c-4.598,0-8.613,3.108-9.766,7.562l-5.137,19.934L86.764,46.285c-1.593-0.938-3.359-1.395-5.114-1.395
								c-2.61,0-5.193,1.012-7.136,2.955L62.347,60.011c-3.251,3.251-3.894,8.289-1.559,12.253l10.463,17.727l-19.937,5.137
								C46.864,96.282,43.755,100.298,43.755,104.896z M71.625,91.444c0.456-0.118,0.831-0.443,1.012-0.878
								c0.18-0.436,0.146-0.931-0.094-1.336L62.081,71.503c-1.987-3.374-1.441-7.664,1.327-10.432l12.167-12.167
								c1.622-1.622,3.78-2.516,6.076-2.516c1.528,0,3.034,0.411,4.352,1.187l17.729,10.465c0.234,0.138,0.498,0.208,0.763,0.208
								c0.194,0,0.39-0.038,0.574-0.114c0.436-0.18,0.761-0.555,0.879-1.012l5.136-19.932c0.981-3.79,4.4-6.437,8.314-6.437h17.207
								c3.914,0,7.332,2.646,8.313,6.433l5.138,19.937c0.118,0.456,0.443,0.831,0.879,1.011c0.184,0.076,0.379,0.114,0.574,0.114
								c0.265,0,0.529-0.07,0.763-0.208l17.725-10.463c1.32-0.777,2.826-1.188,4.355-1.188c2.296,0,4.453,0.893,6.076,2.515
								l12.167,12.167c2.768,2.768,3.314,7.057,1.329,10.428l-10.464,17.729c-0.24,0.406-0.274,0.901-0.094,1.336
								c0.18,0.435,0.555,0.761,1.011,0.879l19.932,5.136c3.791,0.982,6.439,4.401,6.439,8.315v17.206
								c0,3.914-2.646,7.333-6.434,8.314l-19.937,5.137c-0.456,0.118-0.831,0.443-1.011,0.879c-0.18,0.436-0.146,0.931,0.094,1.336
								l10.462,17.725c1.987,3.374,1.441,7.664-1.327,10.432l-12.167,12.167c-1.621,1.622-3.779,2.516-6.075,2.516
								c-1.529,0-3.034-0.411-4.354-1.188c-0.475-0.28-0.634-0.894-0.355-1.369c0.182-0.309,0.505-0.493,0.865-0.493
								c0.179,0,0.349,0.047,0.505,0.138c1.012,0.596,2.168,0.911,3.341,0.911c1.76,0,3.415-0.685,4.659-1.93l12.167-12.167
								c2.123-2.123,2.541-5.414,1.017-8.003l-12.152-20.587c-0.159-0.269-0.182-0.601-0.062-0.89
								c0.12-0.289,0.372-0.508,0.674-0.586l23.154-5.966c2.905-0.753,4.934-3.375,4.934-6.377v-17.206
								c0-3.002-2.03-5.625-4.939-6.379l-23.15-5.965c-0.302-0.078-0.554-0.297-0.674-0.586c-0.12-0.289-0.096-0.622,0.062-0.891
								l12.153-20.59c1.523-2.585,1.104-5.874-1.019-7.998l-12.167-12.167c-1.244-1.244-2.9-1.929-4.661-1.929
								c-1.173,0-2.328,0.315-3.341,0.911l-20.589,12.153c-0.152,0.09-0.327,0.138-0.505,0.138c-0.132,0-0.261-0.026-0.385-0.077
								c-0.288-0.119-0.507-0.371-0.585-0.674l-5.966-23.154c-0.753-2.905-3.375-4.933-6.377-4.933h-17.207
								c-3.002,0-5.625,2.03-6.377,4.938l-5.966,23.149c-0.078,0.303-0.297,0.555-0.586,0.675c-0.122,0.051-0.251,0.076-0.383,0.076
								c-0.179,0-0.354-0.048-0.508-0.139l-20.59-12.154c-1.01-0.595-2.164-0.91-3.337-0.91c-1.761,0-3.416,0.685-4.661,1.93
								L64.821,62.486c-2.123,2.124-2.542,5.413-1.018,8.002l12.151,20.586c0.159,0.269,0.182,0.602,0.062,0.892
								c-0.119,0.289-0.371,0.507-0.674,0.585l-23.154,5.966c-2.905,0.752-4.934,3.375-4.934,6.378v17.206
								c0,3.003,2.03,5.625,4.939,6.379l23.149,5.964c0.302,0.078,0.554,0.297,0.674,0.586c0.12,0.288,0.096,0.621-0.063,0.89
								l-12.153,20.591c-1.522,2.587-1.102,5.876,1.021,7.999l12.167,12.167c1.245,1.244,2.9,1.93,4.66,1.93
								c1.174,0,2.329-0.315,3.339-0.911c0.157-0.092,0.327-0.139,0.506-0.139c0.359,0,0.682,0.184,0.864,0.493
								c0.135,0.23,0.173,0.499,0.106,0.758c-0.067,0.259-0.23,0.476-0.461,0.611c-1.32,0.777-2.825,1.188-4.354,1.188
								c-2.296,0-4.454-0.893-6.076-2.516l-12.166-12.167c-2.768-2.767-3.314-7.056-1.329-10.428l10.464-17.729
								c0.24-0.406,0.274-0.901,0.094-1.336c-0.18-0.435-0.555-0.761-1.012-0.879l-19.931-5.136
								c-3.791-0.982-6.439-4.401-6.439-8.315v-17.206c0-3.914,2.646-7.333,6.433-8.314L71.625,91.444z"/>
						</g>
					</g>
				</g>
			</g>
		</g>
		<g>
			<g>
				<g>
					<path class="st4" d="M173.722,113.132c0-25.211-20.511-45.721-45.722-45.721s-45.722,20.51-45.722,45.721
						s20.511,45.722,45.722,45.722S173.722,138.343,173.722,113.132z M87.278,113.132c0-22.454,18.268-40.721,40.722-40.721
						s40.722,18.268,40.722,40.721c0,22.454-18.268,40.722-40.722,40.722S87.278,135.586,87.278,113.132z"/>
				</g>
			</g>
		</g>
		<g>
			<g>
				<g>
					<g>
						<path class="st5" d="M173.722,113.132c0-25.211-20.511-45.721-45.722-45.721s-45.722,20.51-45.722,45.721
							s20.511,45.722,45.722,45.722S173.722,138.343,173.722,113.132z M83.778,113.132c0-24.384,19.838-44.221,44.222-44.221
							s44.222,19.838,44.222,44.221c0,24.384-19.838,44.222-44.222,44.222S83.778,137.516,83.778,113.132z"/>
						<path class="st5" d="M170.222,113.132c0-23.281-18.941-42.221-42.222-42.221s-42.222,18.94-42.222,42.221
							c0,23.281,18.941,42.222,42.222,42.222S170.222,136.413,170.222,113.132z M87.278,113.132
							c0-22.454,18.268-40.721,40.722-40.721s40.722,18.268,40.722,40.721c0,22.454-18.268,40.722-40.722,40.722
							S87.278,135.586,87.278,113.132z"/>
					</g>
				</g>
			</g>
		</g>
		<g>
			<g>
				<g>
					<path class="st2" d="M169.365,226.746c1.381,0,2.5-1.119,2.5-2.5v-51.542c0-10.394-8.456-18.85-18.85-18.85h-50.032
						c-10.394,0-18.849,8.456-18.849,18.85v51.542c0,1.381,1.119,2.5,2.5,2.5s2.5-1.119,2.5-2.5v-51.542
						c0-7.637,6.213-13.85,13.849-13.85h50.032c7.637,0,13.85,6.213,13.85,13.85v51.542
						C166.865,225.626,167.984,226.746,169.365,226.746z"/>
				</g>
			</g>
		</g>
		<g>
			<g>
				<g>
					<path class="st2" d="M108.31,224.246v-23.989c0-1.381-1.119-2.5-2.5-2.5s-2.5,1.119-2.5,2.5v23.989c0,1.381,1.119,2.5,2.5,2.5
						S108.31,225.626,108.31,224.246z"/>
				</g>
			</g>
		</g>
		<g>
			<g>
				<g>
					<path class="st2" d="M152.69,224.246v-23.989c0-1.381-1.119-2.5-2.5-2.5s-2.5,1.119-2.5,2.5v23.989c0,1.381,1.119,2.5,2.5,2.5
						S152.69,225.626,152.69,224.246z"/>
				</g>
			</g>
		</g>
		<g>
			<g>
				<g>
					<g>
						<path class="st3" d="M108.31,224.246v-23.989c0-1.381-1.119-2.5-2.5-2.5s-2.5,1.119-2.5,2.5v23.989c0,1.381,1.119,2.5,2.5,2.5
							S108.31,225.626,108.31,224.246z M104.81,224.246v-23.989c0-0.551,0.449-1,1-1s1,0.449,1,1v23.989c0,0.551-0.449,1-1,1
							S104.81,224.797,104.81,224.246z"/>
					</g>
				</g>
			</g>
			<g>
				<g>
					<g>
						<path class="st3" d="M152.69,224.246v-23.989c0-1.381-1.119-2.5-2.5-2.5s-2.5,1.119-2.5,2.5v23.989c0,1.381,1.119,2.5,2.5,2.5
							S152.69,225.626,152.69,224.246z M149.19,224.246v-23.989c0-0.551,0.449-1,1-1s1,0.449,1,1v23.989c0,0.551-0.449,1-1,1
							S149.19,224.797,149.19,224.246z"/>
					</g>
				</g>
			</g>
		</g>
		<g>
			<g>
				<g>
					<path class="st2" d="M157.658,113.132c0-16.354-13.305-29.658-29.658-29.658s-29.658,13.305-29.658,29.658
						c0,16.354,13.305,29.659,29.658,29.659S157.658,129.486,157.658,113.132z M103.342,113.132
						c0-13.597,11.062-24.658,24.658-24.658s24.658,11.062,24.658,24.658S141.597,137.791,128,137.791
						S103.342,126.729,103.342,113.132z"/>
				</g>
			</g>
		</g>
		<g>
			<g>
				<g>
					<g>
						<path class="st3" d="M169.365,226.746c1.381,0,2.5-1.119,2.5-2.5v-51.542c0-10.394-8.456-18.85-18.85-18.85h-50.032
							c-10.394,0-18.849,8.456-18.849,18.85v51.542c0,1.381,1.119,2.5,2.5,2.5s2.5-1.119,2.5-2.5v-51.542
							c0-7.637,6.213-13.85,13.849-13.85h50.032c7.637,0,13.85,6.213,13.85,13.85v51.542
							C166.865,225.626,167.984,226.746,169.365,226.746z M153.016,157.354h-50.032c-8.464,0-15.349,6.886-15.349,15.35v51.542
							c0,0.551-0.449,1-1,1s-1-0.449-1-1v-51.542c0-9.567,7.783-17.35,17.349-17.35h50.032c9.567,0,17.35,7.783,17.35,17.35v51.542
							c0,0.551-0.449,1-1,1s-1-0.449-1-1v-51.542C168.365,164.24,161.479,157.354,153.016,157.354z"/>
					</g>
				</g>
			</g>
			<g>
				<g>
					<g>
						<path class="st3" d="M154.158,113.132c0-14.424-11.734-26.158-26.158-26.158s-26.158,11.734-26.158,26.158
							c0,14.424,11.734,26.159,26.158,26.159S154.158,127.556,154.158,113.132z M103.342,113.132
							c0-13.597,11.062-24.658,24.658-24.658s24.658,11.062,24.658,24.658S141.597,137.791,128,137.791
							S103.342,126.729,103.342,113.132z"/>
						<path class="st3" d="M157.658,113.132c0-16.354-13.305-29.658-29.658-29.658s-29.658,13.305-29.658,29.658
							c0,16.354,13.305,29.659,29.658,29.659S157.658,129.486,157.658,113.132z M99.842,113.132
							c0-15.526,12.632-28.158,28.158-28.158s28.158,12.632,28.158,28.158c0,15.527-12.632,28.159-28.158,28.159
							S99.842,128.659,99.842,113.132z"/>
					</g>
				</g>
			</g>
		</g>
		<g>
			<g>
				<g>
					<g>
						<path class="st6" d="M128,101.593c2.492,0,4.52,2.027,4.52,4.52c0,1.381,1.119,2.5,2.5,2.5s2.5-1.119,2.5-2.5
							c0-5.249-4.271-9.52-9.52-9.52s-9.52,4.271-9.52,9.52s4.271,9.52,9.52,9.52c1.381,0,2.5-1.119,2.5-2.5s-1.119-2.5-2.5-2.5
							c-2.492,0-4.52-2.027-4.52-4.52S125.508,101.593,128,101.593z"/>
					</g>
				</g>
			</g>
			<g>
				<g>
					<g>
						<path class="st6" d="M128,124.672c-2.492,0-4.52-2.027-4.52-4.52c0-1.381-1.119-2.5-2.5-2.5s-2.5,1.119-2.5,2.5
							c0,5.249,4.271,9.52,9.52,9.52s9.52-4.271,9.52-9.52c0-5.25-4.271-9.52-9.52-9.52c-1.381,0-2.5,1.119-2.5,2.5
							s1.119,2.5,2.5,2.5c2.492,0,4.52,2.028,4.52,4.52S130.492,124.672,128,124.672z"/>
					</g>
				</g>
			</g>
			<g>
				<g>
					<g>
						<path class="st6" d="M130.5,99.093v-3.308c0-1.381-1.119-2.5-2.5-2.5s-2.5,1.119-2.5,2.5v3.308c0,1.381,1.119,2.5,2.5,2.5
							S130.5,100.474,130.5,99.093z"/>
					</g>
				</g>
			</g>
			<g>
				<g>
					<g>
						<path class="st6" d="M130.5,130.479v-3.308c0-1.381-1.119-2.5-2.5-2.5s-2.5,1.119-2.5,2.5v3.308c0,1.381,1.119,2.5,2.5,2.5
							S130.5,131.86,130.5,130.479z"/>
					</g>
				</g>
			</g>
			<g>
				<g>
					<g>
						<path class="st6" d="M128,101.593c2.492,0,4.52,2.027,4.52,4.52c0,1.381,1.119,2.5,2.5,2.5s2.5-1.119,2.5-2.5
							c0-5.249-4.271-9.52-9.52-9.52s-9.52,4.271-9.52,9.52s4.271,9.52,9.52,9.52c1.381,0,2.5-1.119,2.5-2.5s-1.119-2.5-2.5-2.5
							c-2.492,0-4.52-2.027-4.52-4.52S125.508,101.593,128,101.593z"/>
					</g>
				</g>
			</g>
			<g>
				<g>
					<g>
						<path class="st6" d="M128,124.672c-2.492,0-4.52-2.027-4.52-4.52c0-1.381-1.119-2.5-2.5-2.5s-2.5,1.119-2.5,2.5
							c0,5.249,4.271,9.52,9.52,9.52s9.52-4.271,9.52-9.52c0-5.25-4.271-9.52-9.52-9.52c-1.381,0-2.5,1.119-2.5,2.5
							s1.119,2.5,2.5,2.5c2.492,0,4.52,2.028,4.52,4.52S130.492,124.672,128,124.672z"/>
					</g>
				</g>
			</g>
			<g>
				<g>
					<g>
						<path class="st6" d="M130.5,99.093v-3.308c0-1.381-1.119-2.5-2.5-2.5s-2.5,1.119-2.5,2.5v3.308c0,1.381,1.119,2.5,2.5,2.5
							S130.5,100.474,130.5,99.093z"/>
					</g>
				</g>
			</g>
			<g>
				<g>
					<g>
						<path class="st6" d="M130.5,130.479v-3.308c0-1.381-1.119-2.5-2.5-2.5s-2.5,1.119-2.5,2.5v3.308c0,1.381,1.119,2.5,2.5,2.5
							S130.5,131.86,130.5,130.479z"/>
					</g>
				</g>
			</g>
		</g>
		<g>
			<g>
				<g>
					<path class="st7" d="M128,124.672c-2.492,0-4.52-2.027-4.52-4.52c0-1.381-1.119-2.5-2.5-2.5s-2.5,1.119-2.5,2.5
						c0,4.383,2.981,8.073,7.02,9.175v1.152c0,1.381,1.119,2.5,2.5,2.5s2.5-1.119,2.5-2.5v-1.152c4.038-1.102,7.02-4.793,7.02-9.175
						c0-5.25-4.271-9.52-9.52-9.52c-2.492,0-4.52-2.027-4.52-4.52s2.027-4.52,4.52-4.52s4.52,2.027,4.52,4.52
						c0,1.381,1.119,2.5,2.5,2.5s2.5-1.119,2.5-2.5c0-4.383-2.981-8.073-7.02-9.175v-1.152c0-1.381-1.119-2.5-2.5-2.5
						s-2.5,1.119-2.5,2.5v1.152c-4.038,1.102-7.02,4.793-7.02,9.175c0,5.249,4.271,9.52,9.52,9.52c2.492,0,4.52,2.028,4.52,4.52
						S130.492,124.672,128,124.672z M134.02,120.152c0-3.319-2.7-6.02-6.02-6.02c-4.422,0-8.02-3.598-8.02-8.02
						c0-3.6,2.432-6.778,5.914-7.728c0.652-0.178,1.105-0.771,1.105-1.447v-1.152c0-0.551,0.449-1,1-1s1,0.449,1,1v1.152
						c0,0.676,0.453,1.269,1.105,1.447c3.482,0.95,5.914,4.128,5.914,7.728c0,0.551-0.449,1-1,1s-1-0.449-1-1
						c0-3.319-2.7-6.02-6.02-6.02s-6.02,2.7-6.02,6.02c0,3.319,2.7,6.02,6.02,6.02c4.422,0,8.02,3.598,8.02,8.02
						c0,3.6-2.432,6.778-5.914,7.728c-0.652,0.178-1.105,0.771-1.105,1.447v1.152c0,0.551-0.449,1-1,1s-1-0.449-1-1v-1.152
						c0-0.676-0.453-1.269-1.105-1.447c-3.482-0.95-5.914-4.128-5.914-7.728c0-0.551,0.449-1,1-1s1,0.449,1,1
						c0,3.319,2.7,6.02,6.02,6.02S134.02,123.471,134.02,120.152z"/>
				</g>
			</g>
		</g>
	</g>
</g>
</svg>
