<?xml version="1.0" encoding="utf-8"?>
<!-- Generator: Adobe Illustrator 22.0.0, SVG Export Plug-In . SVG Version: 6.00 Build 0)  -->
<svg version="1.1" id="Icon_Set" xmlns="http://www.w3.org/2000/svg" xmlns:xlink="http://www.w3.org/1999/xlink" x="0px" y="0px"
	 viewBox="0 0 64 64" style="enable-background:new 0 0 64 64;" xml:space="preserve">
<style type="text/css">
	.st0{fill:#40C4FF;}
	.st1{fill:#263238;}
	.st2{fill:#FFD740;}
	.st3{fill:#FF5252;}
	.st4{fill:#4DB6AC;}
	.st5{fill:#FFFFFF;}
	.st6{fill:#4FC3F7;}
	.st7{fill:#37474F;}
</style>
<g>
	<g>
		<path class="st1" d="M63.5,32.5h-1c-0.276,0-0.5-0.224-0.5-0.5s0.224-0.5,0.5-0.5h1c0.276,0,0.5,0.224,0.5,0.5
			S63.776,32.5,63.5,32.5z"/>
	</g>
	<g>
		<path class="st1" d="M60.5,32.5h-7c-0.276,0-0.5-0.224-0.5-0.5s0.224-0.5,0.5-0.5h7c0.276,0,0.5,0.224,0.5,0.5
			S60.776,32.5,60.5,32.5z"/>
	</g>
	<g>
		<path class="st1" d="M1.5,32.5h-1C0.224,32.5,0,32.276,0,32s0.224-0.5,0.5-0.5h1C1.776,31.5,2,31.724,2,32S1.776,32.5,1.5,32.5z"
			/>
	</g>
	<g>
		<path class="st1" d="M10.5,32.5h-7C3.224,32.5,3,32.276,3,32s0.224-0.5,0.5-0.5h7c0.276,0,0.5,0.224,0.5,0.5
			S10.776,32.5,10.5,32.5z"/>
	</g>
	<g>
		<path class="st1" d="M39.5,20.5c-0.276,0-0.5-0.224-0.5-0.5v-1.5c0-1.103-0.897-2-2-2H27c-1.103,0-2,0.897-2,2V20
			c0,0.276-0.224,0.5-0.5,0.5S24,20.276,24,20v-1.5c0-1.654,1.346-3,3-3h10c1.654,0,3,1.346,3,3V20C40,20.276,39.776,20.5,39.5,20.5
			z"/>
	</g>
	<g>
		<path class="st0" d="M39.812,33.987L50,30v-5.5c0-1.381-1.119-2.5-2.5-2.5h-31c-1.381,0-2.5,1.119-2.5,2.5V30l10.188,3.987H39.812
			z"/>
	</g>
	<g>
		<path class="st1" d="M47.5,48.5h-31c-1.654,0-3-1.346-3-3v-21c0-1.654,1.346-3,3-3h31c1.654,0,3,1.346,3,3v21
			C50.5,47.154,49.154,48.5,47.5,48.5z M16.5,22.5c-1.103,0-2,0.897-2,2v21c0,1.103,0.897,2,2,2h31c1.103,0,2-0.897,2-2v-21
			c0-1.103-0.897-2-2-2H16.5z"/>
	</g>
	<g>
		<path class="st1" d="M59,22.474c-0.13,0-0.258-0.051-0.354-0.146l-3.889-3.89l-3.503,3.503c-0.195,0.195-0.512,0.195-0.707,0
			s-0.195-0.512,0-0.707l3.856-3.856c0.094-0.094,0.221-0.146,0.354-0.146l0,0c0.133,0,0.26,0.053,0.354,0.146l3.389,3.39V5.503
			H43.236l3.39,3.39c0.094,0.094,0.146,0.221,0.146,0.354S46.72,9.506,46.626,9.6l-6.084,6.083c-0.195,0.195-0.512,0.195-0.707,0
			s-0.195-0.512,0-0.707l5.73-5.729l-3.89-3.89c-0.143-0.143-0.186-0.358-0.108-0.545s0.26-0.309,0.462-0.309H59
			c0.276,0,0.5,0.224,0.5,0.5v16.971c0,0.202-0.122,0.385-0.309,0.462C59.13,22.461,59.064,22.474,59,22.474z"/>
	</g>
	<g>
		<path class="st1" d="M5,22.474c-0.064,0-0.13-0.013-0.191-0.038C4.622,22.358,4.5,22.176,4.5,21.974V5.003
			c0-0.276,0.224-0.5,0.5-0.5h16.971c0.202,0,0.385,0.122,0.462,0.309s0.034,0.402-0.108,0.545l-3.889,3.89l5.729,5.729
			c0.195,0.195,0.195,0.512,0,0.707s-0.512,0.195-0.707,0L17.375,9.6c-0.195-0.195-0.195-0.512,0-0.707l3.389-3.39H5.5v15.264
			l3.39-3.39c0.094-0.094,0.221-0.146,0.354-0.146l0,0c0.133,0,0.26,0.053,0.354,0.146l3.855,3.856c0.195,0.195,0.195,0.512,0,0.707
			s-0.512,0.195-0.707,0l-3.502-3.503l-3.89,3.89C5.258,22.423,5.13,22.474,5,22.474z"/>
	</g>
	<g>
		<path class="st1" d="M21.971,59.503H5c-0.276,0-0.5-0.224-0.5-0.5V42.032c0-0.202,0.122-0.385,0.309-0.462
			c0.186-0.076,0.402-0.034,0.545,0.108l3.889,3.89l2.404-2.404c0.195-0.195,0.512-0.195,0.707,0s0.195,0.512,0,0.707l-2.758,2.758
			c-0.094,0.094-0.221,0.146-0.354,0.146l0,0c-0.133,0-0.26-0.053-0.354-0.146L5.5,43.239v15.264h15.264l-3.39-3.39
			c-0.094-0.094-0.146-0.221-0.146-0.354s0.053-0.26,0.146-0.354l4.761-4.76c0.195-0.195,0.512-0.195,0.707,0s0.195,0.512,0,0.707
			l-4.407,4.406l3.89,3.89c0.143,0.143,0.186,0.358,0.108,0.545S22.173,59.503,21.971,59.503z"/>
	</g>
	<g>
		<path class="st1" d="M59,59.503H42.029c-0.202,0-0.385-0.122-0.462-0.309s-0.034-0.402,0.108-0.545l3.89-3.89l-4.407-4.406
			c-0.195-0.195-0.195-0.512,0-0.707s0.512-0.195,0.707,0l4.761,4.76c0.094,0.094,0.146,0.221,0.146,0.354s-0.053,0.26-0.146,0.354
			l-3.39,3.39H58.5V43.239l-3.389,3.39c-0.188,0.188-0.52,0.188-0.707,0l-2.758-2.758c-0.195-0.195-0.195-0.512,0-0.707
			s0.512-0.195,0.707,0l2.404,2.404l3.889-3.89c0.144-0.144,0.359-0.186,0.545-0.108c0.187,0.077,0.309,0.26,0.309,0.462v16.971
			C59.5,59.279,59.276,59.503,59,59.503z"/>
	</g>
	<g>
		<path class="st2" d="M37,36H27c-0.552,0-1-0.448-1-1v-2c0-0.552,0.448-1,1-1h10c0.552,0,1,0.448,1,1v2C38,35.552,37.552,36,37,36z
			"/>
		<path class="st1" d="M37,36.5H27c-0.827,0-1.5-0.673-1.5-1.5v-2c0-0.827,0.673-1.5,1.5-1.5h10c0.827,0,1.5,0.673,1.5,1.5v2
			C38.5,35.827,37.827,36.5,37,36.5z M27,32.5c-0.275,0-0.5,0.225-0.5,0.5v2c0,0.275,0.225,0.5,0.5,0.5h10
			c0.275,0,0.5-0.225,0.5-0.5v-2c0-0.275-0.225-0.5-0.5-0.5H27z"/>
	</g>
	<g>
		<path class="st1" d="M39.812,34.487c-0.199,0-0.389-0.12-0.466-0.317c-0.101-0.258,0.026-0.548,0.283-0.648l9.871-3.862V24.5
			c0-1.103-0.897-2-2-2h-31c-1.103,0-2,0.897-2,2v5.159l9.871,3.862c0.257,0.101,0.384,0.391,0.283,0.648s-0.388,0.383-0.648,0.283
			l-10.188-3.987C13.626,30.391,13.5,30.206,13.5,30v-5.5c0-1.654,1.346-3,3-3h31c1.654,0,3,1.346,3,3V30
			c0,0.206-0.126,0.391-0.317,0.466l-10.188,3.987C39.934,34.477,39.872,34.487,39.812,34.487z"/>
	</g>
	<g>
		<path class="st2" d="M32,40L32,40c-1.381,0-2.5-1.119-2.5-2.5V36h5v1.5C34.5,38.881,33.381,40,32,40z"/>
		<path class="st1" d="M32,40.5c-1.654,0-3-1.346-3-3V36c0-0.276,0.224-0.5,0.5-0.5h5c0.276,0,0.5,0.224,0.5,0.5v1.5
			C35,39.154,33.654,40.5,32,40.5z M30,36.5v1c0,1.103,0.897,2,2,2s2-0.897,2-2v-1H30z"/>
	</g>
</g>
</svg>
