<?xml version="1.0" encoding="utf-8"?>
<!-- Generator: Adobe Illustrator 24.3.0, SVG Export Plug-In . SVG Version: 6.00 Build 0)  -->
<svg version="1.1" id="Layer_1" xmlns="http://www.w3.org/2000/svg" xmlns:xlink="http://www.w3.org/1999/xlink" x="0px" y="0px"
	 viewBox="0 0 800 800" enable-background="new 0 0 800 800" xml:space="preserve">
<g>
	<path d="M699.636,103.673H465.2V64.306c0-8.14-6.622-14.762-14.762-14.762H349.013c-8.144,0-14.766,6.622-14.766,14.762v39.366
		H99.811c-26,0-47.148,21.149-47.148,47.148v353.033c0,26,21.148,47.148,47.148,47.148h63.736c-0.029,0.441-0.132,0.861-0.132,1.309
		v28.649c0,10.948,8.91,19.857,19.857,19.857h153.349c-21.42,43.412-42.84,86.824-64.26,130.236
		c-5.266,10.671,10.73,20.083,16.02,9.364c22.363-45.323,44.726-90.647,67.089-135.97c0.61-1.238,0.909-2.455,0.998-3.63h86.51
		c0.088,1.175,0.387,2.391,0.999,3.63c22.362,45.323,44.726,90.647,67.089,135.97c5.283,10.707,21.29,1.317,16.02-9.364
		c-21.42-43.412-42.84-86.824-64.259-130.236h153.348c10.948,0,19.857-8.91,19.857-19.857v-28.649c0-0.448-0.103-0.868-0.133-1.309
		h63.736c26,0,47.148-21.148,47.148-47.148V150.821C746.784,124.821,725.636,103.673,699.636,103.673z M352.8,68.098h93.848v35.575
		H352.8V68.098z M617.479,552.311v28.649c0,0.693-0.612,1.305-1.305,1.305H183.272c-0.693,0-1.305-0.612-1.305-1.305v-28.649
		c0-0.698,0.611-1.309,1.305-1.309h432.902C616.868,551.002,617.479,551.613,617.479,552.311z M728.231,503.854
		c0,15.767-12.828,28.595-28.595,28.595h-83.461H183.272H99.811c-15.767,0-28.595-12.828-28.595-28.595V150.821
		c0-15.767,12.828-28.595,28.595-28.595h249.202h101.426h249.197c15.767,0,28.595,12.828,28.595,28.595V503.854z"/>
	<path d="M391.283,355.121H330.84c-10.341,0-18.752,8.411-18.752,18.752v83.982c0,10.341,8.411,18.752,18.752,18.752h60.442
		c10.341,0,18.752-8.411,18.752-18.752v-83.982C410.035,363.533,401.624,355.121,391.283,355.121z M391.482,457.856
		c0,0.086-0.113,0.199-0.199,0.199l-60.641-0.199l0.199-84.182l60.642,0.199V457.856z"/>
	<path d="M681.962,273.762h-60.266c-10.386,0-18.838,8.452-18.838,18.838v165.17c0,10.386,8.452,18.838,18.838,18.838h60.266
		c10.386,0,18.838-8.452,18.838-18.838V292.6C700.8,282.214,692.348,273.762,681.962,273.762z M682.247,457.77
		c0,0.136-0.15,0.285-0.285,0.285l-60.551-0.285l0.285-165.455l60.551,0.285V457.77z"/>
	<path d="M555.273,338.466h0.002c0-0.013-0.002-0.026-0.002-0.039c0-0.245,0-0.491,0-0.736c0-0.223-0.053-0.439-0.07-0.66
		c-0.752-13.477-11.922-24.22-25.583-24.22h-49.839c-12.379,0-22.453,10.074-22.453,22.453v118.892
		c0,12.379,10.074,22.453,22.453,22.453h53.036c12.384,0,22.457-10.074,22.457-22.453v-46.21h-0.002c0-0.001,0-0.002,0-0.002
		c0-11.938-18.553-11.958-18.553,0c0,10.84,0,21.68,0,32.52c0,0.007,0.002,0.013,0.002,0.02v13.673c0,2.115-1.789,3.9-3.904,3.9
		h-53.036c-2.115,0-3.9-1.785-3.9-3.9V335.264c0-2.115,1.785-3.9,3.9-3.9h49.839c3.911,0,7.09,3.174,7.1,7.083
		c0,4.404,0,8.808,0,13.212c0,4.852,4.267,9.501,9.277,9.276c5.027-0.225,9.277-4.076,9.277-9.276
		C555.273,347.261,555.273,342.864,555.273,338.466z"/>
	<path d="M545.996,369.799c-4.792,0-8.676,3.885-8.676,8.677c0,4.792,3.884,8.677,8.676,8.677c4.792,0,8.677-3.885,8.677-8.677
		C554.674,373.684,550.788,369.799,545.996,369.799z"/>
	<path d="M301.959,218.012c-5.2-10.745-21.204-1.348-16.02,9.364c20.423,42.204,8.141,94.068-33.162,118.573
		c-35.687,21.173-83.11,15.135-111.467-15.621c-27.536-29.865-31.873-75.533-9.76-109.793
		c26.826-41.562,80.556-51.161,122.453-27.405c10.401,5.898,19.761-10.125,9.364-16.02c-48.851-27.699-110.879-17.45-144.391,29.043
		c-29.953,41.557-25.807,100.066,9.214,137.295c34.97,37.174,93.557,44.387,136.568,16.952
		C313.252,329.468,326.376,268.471,301.959,218.012z"/>
	<path d="M278.527,210.203c4.792,0,8.677-3.885,8.677-8.677c0-4.792-3.885-8.677-8.677-8.677s-8.677,3.885-8.677,8.677
		C269.85,206.318,273.735,210.203,278.527,210.203z"/>
	<path d="M206.734,238.621c7.03,0,12.971,5.004,12.971,10.926c0,5.021,4.083,9.104,9.103,9.104c5.017,0,9.1-4.083,9.1-9.104
		c0-12.066-8.128-23.026-20.235-27.275l-1.748-0.614l-0.123-1.85c-0.316-4.765-4.302-8.496-9.069-8.496
		c-4.767,0-8.753,3.731-9.07,8.496l-0.122,1.85l-1.748,0.614c-12.102,4.25-20.23,15.212-20.23,27.275
		c0,16.065,13.981,29.135,31.171,29.135c7.03,0,12.971,5.004,12.971,10.926c0,5.922-5.942,10.926-12.971,10.926
		c-7.027,0-12.964-5.004-12.964-10.926c0-5.02-4.083-9.106-9.104-9.106s-9.104,4.085-9.104,9.106
		c0,12.093,8.158,23.066,20.302,27.303l1.63,0.57l0.232,1.71c0.6,4.495,4.476,7.884,9.007,7.884c4.531,0,8.407-3.391,9.01-7.886
		l0.232-1.71l1.63-0.568c12.144-4.237,20.302-15.21,20.302-27.303c0-16.065-13.98-29.135-31.171-29.135
		c-7.027,0-12.968-5.004-12.968-10.926S199.708,238.621,206.734,238.621z"/>
	<path d="M427.154,209.365c30.273,0.108,60.546,0.215,90.821,0.322c11.94,0.043,11.956-18.511,0-18.553
		c-30.274-0.107-60.547-0.215-90.821-0.322C415.215,190.77,415.199,209.323,427.154,209.365z"/>
	<path d="M406.827,205.711c3.308-3.468,3.176-8.96-0.291-12.268c-3.469-3.307-8.962-3.177-12.268,0.292
		c-3.307,3.468-3.176,8.961,0.292,12.268C398.027,209.31,403.519,209.179,406.827,205.711z"/>
	<path d="M544.789,241.633c-39.211-0.107-78.422-0.215-117.634-0.322c-11.94-0.033-11.956,18.52,0,18.553
		c39.212,0.108,78.423,0.215,117.634,0.322C556.729,260.219,556.746,241.666,544.789,241.633z"/>
	<path d="M406.827,256.209c3.308-3.468,3.176-8.961-0.291-12.268c-3.469-3.307-8.962-3.177-12.268,0.292s-3.176,8.961,0.292,12.268
		C398.027,259.808,403.519,259.678,406.827,256.209z"/>
	<rect x="352.8" y="68.098" fill="#F16235" width="93.848" height="35.575"/>
	<path fill="#58C7DE" d="M617.479,552.311v28.649c0,0.693-0.612,1.305-1.305,1.305H183.272c-0.693,0-1.305-0.612-1.305-1.305
		v-28.649c0-0.698,0.611-1.309,1.305-1.309h432.902C616.868,551.002,617.479,551.613,617.479,552.311z"/>
	<path fill="#58C7DE" d="M391.482,457.856c0,0.086-0.113,0.199-0.199,0.199l-60.641-0.199l0.199-84.182l60.642,0.199V457.856z"/>
	<path fill="#F16235" d="M682.247,457.77c0,0.136-0.15,0.285-0.285,0.285l-60.551-0.285l0.285-165.455l60.551,0.285V457.77z"/>
</g>
</svg>
