<?xml version="1.0" standalone="no"?>
<!DOCTYPE svg PUBLIC "-//W3C//DTD SVG 20010904//EN"
 "http://www.w3.org/TR/2001/REC-SVG-20010904/DTD/svg10.dtd">
<svg version="1.0" xmlns="http://www.w3.org/2000/svg"
 width="776.000000pt" height="680.000000pt" viewBox="0 0 776.000000 680.000000"
 preserveAspectRatio="xMidYMid meet">

<g transform="translate(0.000000,680.000000) scale(0.100000,-0.100000)"
fill="#000000" stroke="none">
<path d="M3545 6139 c-1007 -77 -1901 -685 -2345 -1595 -209 -429 -313 -949
-281 -1406 67 -971 564 -1788 1391 -2288 463 -279 1070 -427 1610 -391 963 64
1788 562 2283 1380 286 473 436 1083 399 1621 -39 546 -198 1015 -495 1450
-183 269 -468 554 -737 737 -538 367 -1184 541 -1825 492z m600 -273 c734
-118 1363 -518 1770 -1126 214 -320 349 -667 411 -1055 25 -158 30 -510 10
-680 -40 -331 -126 -614 -273 -895 -133 -254 -262 -429 -473 -640 -210 -211
-390 -343 -642 -475 -365 -190 -760 -285 -1188 -285 -585 0 -1098 173 -1580
534 -122 91 -385 354 -476 476 -278 372 -439 751 -511 1200 -22 143 -26 585
-5 720 73 479 229 856 515 1240 92 122 355 385 477 477 377 280 775 449 1200
507 63 9 129 18 145 20 74 10 525 -3 620 -18z"/>
<path d="M3639 5423 c-43 -5 -28 24 -154 -293 -53 -135 -155 -391 -226 -569
-71 -179 -128 -328 -127 -331 2 -4 174 61 383 145 209 83 628 250 930 370 303
120 563 224 579 232 l28 15 -78 54 c-243 170 -560 301 -839 349 -166 28 -382
40 -496 28z"/>
<path d="M3330 5385 c-174 -35 -415 -122 -574 -209 -171 -93 -362 -234 -475
-349 l-53 -55 41 -113 c63 -177 112 -314 206 -569 48 -129 99 -271 115 -315
16 -44 42 -116 58 -160 30 -80 30 -80 42 -50 15 41 114 288 405 1020 325 817
325 815 311 814 -6 0 -40 -7 -76 -14z"/>
<path d="M4581 4626 c-332 -132 -604 -245 -603 -251 0 -5 188 -98 419 -208
412 -195 734 -348 1232 -586 l254 -121 -7 63 c-43 395 -197 777 -439 1087 -53
68 -237 261 -246 259 -3 -1 -278 -110 -610 -243z"/>
<path d="M2083 4607 c-35 -37 -147 -207 -196 -298 -100 -182 -189 -438 -221
-634 -24 -144 -39 -359 -31 -461 l7 -93 131 -52 c73 -28 220 -85 327 -127 107
-41 238 -92 290 -112 354 -137 421 -162 426 -158 2 3 -11 45 -29 94 -18 49
-47 127 -65 174 -17 47 -46 128 -66 180 -19 52 -64 176 -100 275 -36 99 -140
385 -231 635 -92 250 -178 486 -191 524 -13 38 -25 71 -27 73 -2 1 -13 -7 -24
-20z"/>
<path d="M4714 3828 c7 -18 51 -116 96 -218 45 -102 197 -444 337 -760 289
-652 343 -773 347 -778 5 -5 99 146 149 238 95 177 179 422 212 615 18 110 37
333 29 346 -7 11 -1159 589 -1174 589 -6 0 -5 -13 4 -32z"/>
<path d="M4680 2633 c-101 -252 -267 -671 -371 -932 -104 -261 -189 -479 -189
-486 0 -17 98 2 246 46 346 102 648 286 913 552 l104 105 -43 98 c-40 96 -304
701 -379 874 -21 47 -48 111 -62 142 -13 32 -27 58 -31 58 -3 0 -88 -206 -188
-457z"/>
<path d="M1680 2853 c73 -327 219 -633 423 -888 55 -68 219 -235 231 -235 17
0 1196 472 1196 479 0 3 -80 37 -178 75 -97 38 -226 88 -287 112 -60 23 -263
102 -450 174 -187 72 -374 144 -415 160 -391 153 -515 200 -526 200 -9 0 -7
-20 6 -77z"/>
<path d="M3433 1992 c-518 -208 -945 -380 -948 -384 -9 -9 120 -99 240 -166
194 -109 449 -201 660 -237 136 -23 366 -38 460 -30 l84 7 231 581 c128 320
234 588 237 595 3 6 -1 12 -8 11 -8 0 -438 -170 -956 -377z"/>
</g>
</svg>
