<svg xmlns="http://www.w3.org/2000/svg" xmlns:xlink="http://www.w3.org/1999/xlink" width="500" zoomAndPan="magnify" viewBox="0 0 375 374.999991" height="500" preserveAspectRatio="xMidYMid meet" version="1.0"><defs><g/></defs><g fill="#ff00ff" fill-opacity="1"><g transform="translate(122.14553, 185.495511)"><g><path d="M 31.042969 0 L 47.417969 0 L 77.667969 -80.625 L 62.769531 -80.625 L 39.460938 -13.53125 L 39.230469 -13.53125 L 15.691406 -80.625 L 0.910156 -80.625 Z M 31.042969 0 "/></g></g></g><g fill="#00ffff" fill-opacity="1"><g transform="translate(117.881193, 185.495511)"><g><path d="M 31.042969 0 L 47.417969 0 L 77.667969 -80.625 L 62.769531 -80.625 L 39.460938 -13.53125 L 39.230469 -13.53125 L 15.691406 -80.625 L 0.910156 -80.625 Z M 31.042969 0 "/></g></g></g><g fill="#0e6d8d" fill-opacity="1"><g transform="translate(120.01336, 185.495511)"><g><path d="M 31.042969 0 L 47.417969 0 L 77.667969 -80.625 L 62.769531 -80.625 L 39.460938 -13.53125 L 39.230469 -13.53125 L 15.691406 -80.625 L 0.910156 -80.625 Z M 31.042969 0 "/></g></g></g><g fill="#0e6d8d" fill-opacity="1"><g transform="translate(168.859037, 245.594659)"><g><path d="M 77.351562 2.542969 C 84.441406 2.542969 90.730469 -0.804688 95.015625 -5.886719 L 89.796875 -14.453125 C 87.789062 -11.375 84.976562 -9.367188 82.300781 -9.367188 C 79.355469 -9.367188 77.484375 -11.644531 76.679688 -14.71875 L 72.800781 -28.90625 C 71.195312 -34.390625 68.25 -38.675781 63.164062 -40.949219 L 63.164062 -41.082031 C 78.285156 -43.761719 87.386719 -53.664062 87.386719 -66.644531 C 87.386719 -83.503906 73.335938 -94.878906 52.457031 -94.878906 L 7.761719 -94.878906 L 7.761719 0 L 24.355469 0 L 24.355469 -38.003906 L 43.894531 -38.003906 C 49.917969 -38.003906 54.464844 -33.457031 56.339844 -27.167969 L 61.289062 -10.171875 C 63.566406 -2.542969 68.917969 2.542969 77.351562 2.542969 Z M 24.355469 -50.71875 L 24.355469 -81.632812 L 50.988281 -81.632812 C 62.761719 -81.632812 70.660156 -75.207031 70.660156 -66.109375 C 70.660156 -56.875 62.761719 -50.71875 50.988281 -50.71875 Z M 24.355469 -50.71875 "/></g></g></g></svg>