<?xml version="1.0" encoding="UTF-8"?>
<svg width="700pt" height="700pt" version="1.1" viewBox="0 0 700 700" xmlns="http://www.w3.org/2000/svg">
 <g>
  <path d="m240.61 164.95c-14.453 0-28.281 6.1602-37.957 16.887-9.6758 10.727-14.367 25.129-12.879 39.496l26.652 257.44c2.7109 26.145 24.57 45.852 50.855 45.852h165.48c26.266 0 48.141-19.703 50.855-45.852l26.652-257.44c1.4883-14.387-3.2188-28.789-12.879-39.496-9.6758-10.727-23.52-16.887-37.957-16.887zm234.83 52.781-26.652 257.44c-0.85937 8.2422-7.7539 14.453-16.047 14.453h-165.48c-8.2969 0-15.191-6.2109-16.047-14.453l-26.652-257.44c-0.47266-4.6016 0.96094-9.0312 4.0586-12.461 3.0977-3.4297 7.3516-5.3203 11.969-5.3203h218.8c4.6211 0 8.8711 1.8906 11.969 5.3203 3.0977 3.4297 4.5508 7.8594 4.0586 12.461z"/>
  <path d="m390.91 233.27h-81.848c-9.6602 0-17.5 7.8398-17.5 17.5 0 9.6602 7.8398 17.5 17.5 17.5h81.848c9.6602 0 17.5-7.8398 17.5-17.5 0-9.6602-7.8398-17.5-17.5-17.5z"/>
  <path d="m383.62 35.352h-67.254c-28.176 0-51.117 22.941-51.117 51.117v13.547h-77.613c-9.6602 0-17.5 7.8398-17.5 17.5s7.8398 17.5 17.5 17.5h324.7c9.6602 0 17.5-7.8398 17.5-17.5s-7.8398-17.5-17.5-17.5h-77.613v-13.547c0-28.191-22.941-51.117-51.117-51.117zm16.117 64.68h-99.488v-13.547c0-8.8906 7.2266-16.117 16.117-16.117h67.254c8.8906 0 16.117 7.2461 16.117 16.117z"/>
 </g>
</svg>
