<?xml version="1.0" encoding="UTF-8"?>
<svg width="700pt" height="700pt" version="1.1" viewBox="0 0 700 700" xmlns="http://www.w3.org/2000/svg">
 <g>
  <path d="m350 519.75-7-5.25c-10.5-5.25-259-164.5-259-327.25 0-80.5 66.5-147 147-147 49 0 92.75 22.75 119 61.25 28-38.5 71.75-61.25 119-61.25 80.5 0 147 66.5 147 147 0 40.25-15.75 85.75-47.25 131.25l-7 10.5-10.5-8.75c-15.75-12.25-35-17.5-54.25-17.5-52.5 0-94.5 42-94.5 94.5 0 21 7 40.25 19.25 56l7 10.5-10.5 8.75c-35 28-61.25 43.75-61.25 43.75zm-119-453.25c-66.5 0-120.75 54.25-120.75 120.75 0 134.75 199.5 274.75 241.5 302.75 8.75-5.25 24.5-15.75 43.75-31.5-10.5-19.25-15.75-38.5-15.75-61.25 0-66.5 54.25-120.75 120.75-120.75 21 0 40.25 5.25 57.75 15.75 22.75-38.5 35-73.5 35-105 0-66.5-54.25-120.75-120.75-120.75-45.5 0-87.5 26.25-108.5 66.5l-14 24.5-12.25-22.75c-21-43.75-61.25-68.25-106.75-68.25z"/>
  <path d="m497 518c-38.5 0-73.5-17.5-96.25-49-15.75-21-24.5-45.5-24.5-71.75 0-66.5 54.25-120.75 120.75-120.75 24.5 0 49 7 70 22.75 31.5 22.75 50.75 59.5 50.75 98 0 66.5-54.25 120.75-120.75 120.75zm0-213.5c-52.5 0-94.5 42-94.5 94.5 0 21 7 40.25 19.25 56 17.5 24.5 45.5 38.5 75.25 38.5 52.5 0 94.5-42 94.5-94.5 0-29.75-14-57.75-38.5-77-17.5-12.25-36.75-17.5-56-17.5z"/>
  <path d="m442.75 385h108.5v26.25h-108.5z"/>
 </g>
</svg>
